<svg id="Layer_1" data-name="Layer 1" xmlns="http://www.w3.org/2000/svg" viewBox="0 0 477.8 544.29"><g id="qWa4oA.tif"><path d="M192,486.42c-.05,1-.13,1.77-.13,2.53,0,11.87-.07,23.73.07,35.6.34,28-6.7,54.06-20.35,78.39a206.83,206.83,0,0,1-44.17,54.18A243.6,243.6,0,0,1,78.59,690.2L73.38,693c-1.37.73-1.37.72-3.44.46-.72-1-.35-2-.32-3.22l7.25-7.66a380.7,380.7,0,0,0,28.13-33,185.42,185.42,0,0,0,25.29-45.32,164.11,164.11,0,0,0,8.61-31.76c1-6.35,2-12.72,2.65-19.11s1-12.85,1.09-19.28c.16-18.62.09-37.24.11-55.86q.1-80.39.2-160.76,0-57.87,0-115.75a46.55,46.55,0,0,0-1.12-11.45,21.15,21.15,0,0,0-11.48-14.44,87.94,87.94,0,0,0-12.88-5.18A75.63,75.63,0,0,1,103,164.91a13.66,13.66,0,0,1-4-2.76c-.06-1.32-.06-1.32.84-2.43.81,0,1.74,0,2.67,0,2,.11,4.07.32,6.11.39,8,.31,16,.63,24,.85,5.42.14,10.84.15,16.26.17l75.42.23c1.08,0,2.16.1,3.44.17.18,1.13.33,2.1.51,3.28a21.52,21.52,0,0,1-2,.73,94.91,94.91,0,0,0-15,4.71c-2.67,1.15-5.28,2.44-7.84,3.8a18.2,18.2,0,0,0-9,10.73,37.9,37.9,0,0,0-2.11,12c0,7.07-.22,14.14-.32,21.21,0,.88-.31,1.91.69,2.61,1.1-.25,1.62-1.21,2.27-1.95a183.09,183.09,0,0,1,15.83-15.81,192,192,0,0,1,39.88-27,229.34,229.34,0,0,1,54.67-19.42c7.26-1.62,14.61-2.92,22-4.12,4.72-.77,9.5-1.13,14.27-1.6s9.69-.88,14.53-1.29c.79-.07,1.57-.06,2.36-.06,6.91,0,13.83.06,20.74,0a212.47,212.47,0,0,1,22.56,1.26c4.45.43,8.92.72,13.37,1.13,3.91.36,7.81.79,11.71,1.2,4.91.53,9.83,1,14.74,1.62,4.21.49,8.4,1.06,12.6,1.6s8.56,1.1,12.84,1.69c4.82.67,9.62,1.39,14.44,2.08q11,1.57,21.9,3.12c2.56.35,5.14.6,7.71.94a14.67,14.67,0,0,1,1.88.52,16,16,0,0,1,.19,2.17c-.28,4.54-.52,9.09-.93,13.63-.45,5-1,10-1.61,15s-1.35,9.95-2,14.92q-1.33,9.57-2.67,19.12-1.27,9-2.59,17.93c-.37,2.49-.73,5-1.16,7.44a27.72,27.72,0,0,1-.77,2.7h-2.87c-.29-1-.61-1.86-.8-2.75a119,119,0,0,0-7.24-23.35,100.55,100.55,0,0,0-25.31-34.51c-13.23-11.76-28.67-19.41-45.62-24.14a148.83,148.83,0,0,0-22.16-4.32c-6.39-.76-12.8-1.21-19.24-1.48a194.93,194.93,0,0,0-82.35,15.69c-34.18,14.91-60.6,38.54-78.94,71.07a165.83,165.83,0,0,0-18.14,50,177.69,177.69,0,0,0-2.6,20.3c-.63,8-.49,16-.34,24a169.27,169.27,0,0,0,1.73,19.45,192.67,192.67,0,0,0,9.48,39.05,203.18,203.18,0,0,0,35.26,62.72A198.4,198.4,0,0,0,300.45,517a194.16,194.16,0,0,0,79.75,22.76,176.1,176.1,0,0,0,19.08.23c11.7-.49,23.3-1.81,34.62-5.07a62.47,62.47,0,0,0,25.37-14.4,7.57,7.57,0,0,0,2.44-6.08c0-13.12,0-26.25,0-39.37q0-27.57-.05-55.16c0-8.25-.14-16.49-.23-24.74a31.94,31.94,0,0,0-1.8-9.69,12.72,12.72,0,0,0-6.6-7.37c-3.63-1.86-7.32-3.62-11.1-5.15s-7.38-2.66-11.12-3.85a90.88,90.88,0,0,1-12.74-5.51,11.51,11.51,0,0,1-2-1.62l1-1.89c1-.05,1.93-.14,2.86-.13,16.34,0,32.68,0,49,.14,7.93.05,15.86.23,23.79.45,8.79.25,17.58.61,26.37.93q12.6.47,25.19.95a19.37,19.37,0,0,1,2.15.29,3.74,3.74,0,0,1,.75,3.48,11.23,11.23,0,0,1-1.59.61C538,368.5,531,371.58,524,374.75c-7.61,3.44-11.44,9.55-12.42,17.59a75.75,75.75,0,0,0-.47,9.16q0,64.71,0,129.42c0,4.17.44,4.72-4.16,7.91a130.26,130.26,0,0,1-37.4,17.48,199.05,199.05,0,0,1-30.35,6.52c-5.43.73-10.92,1.19-16.39,1.58-4.62.33-9.26.38-13.89.57-17.75.72-35.5.57-53.25.24-7-.13-13.95-.78-20.92-1.24a195.68,195.68,0,0,1-22.87-3A187.49,187.49,0,0,1,237,529.37a191.21,191.21,0,0,1-42.3-41A3.92,3.92,0,0,0,192,486.42Z" transform="translate(-69.5 -149.28)"/></g></svg>